<svg width="40" height="40" viewBox="0 0 40 40" fill="none" xmlns="http://www.w3.org/2000/svg">
<g clip-path="url(#clip0_45_71)">
<path d="M34.2417 8.70833L31.9333 5.90833C31.6966 5.62541 31.4009 5.39755 31.067 5.24067C30.7331 5.08378 30.3689 5.00165 30 5H10C9.225 5 8.53333 5.35833 8.075 5.90833L5.76667 8.70833C5.28333 9.29167 5 10.025 5 10.8333V31.6667C5 33.5083 6.49167 35 8.33333 35H31.6667C33.5083 35 35 33.5083 35 31.6667V10.8333C35 10.025 34.7167 9.29167 34.2417 8.70833ZM20 29.1667L10.8333 20H16.6667V16.6667H23.3333V20H29.1667L20 29.1667ZM8.54167 8.33333L9.9 6.66667H29.9L31.4583 8.33333H8.54167Z" fill="#424242"/>
</g>
<defs>
<clipPath id="clip0_45_71">
<rect width="40" height="40" fill="white"/>
</clipPath>
</defs>
</svg>
