<svg width="22" height="22" viewBox="0 0 22 22" fill="none" xmlns="http://www.w3.org/2000/svg">
<path d="M8.73472 18.3842C9.91095 18.3842 11.0218 17.9267 11.8713 17.099L14.6159 14.3545C14.8119 14.1584 14.8119 13.8099 14.6159 13.6139C14.4199 13.4178 14.0714 13.4178 13.8753 13.6139L11.1308 16.3366C10.4991 16.9683 9.64957 17.3168 8.73472 17.3168C7.81986 17.3168 6.99214 16.9683 6.33868 16.3366C5.68521 15.705 5.35848 14.8555 5.35848 13.9406C5.35848 13.0257 5.70699 12.198 6.33868 11.5446L12.5466 5.33664C13.004 4.87921 13.5921 4.63961 14.2456 4.63961C14.8773 4.63961 15.4872 4.87921 15.9446 5.33664C16.402 5.79406 16.6416 6.38218 16.6416 7.03565C16.6416 7.66733 16.402 8.27723 15.9446 8.73466L9.71491 14.9644C9.17036 15.5089 8.25551 15.5089 7.71095 14.9644C7.44957 14.703 7.29709 14.3327 7.29709 13.9624C7.29709 13.5921 7.44957 13.2218 7.71095 12.9604L10.4773 10.1941C10.6733 9.99802 10.6733 9.64951 10.4773 9.45347C10.2813 9.25743 9.93274 9.25743 9.7367 9.45347L6.99214 12.2198C6.53472 12.6772 6.27333 13.3089 6.27333 13.9624C6.27333 14.6158 6.53472 15.2475 6.99214 15.705C7.95056 16.6634 9.51887 16.6634 10.4773 15.705L16.6852 9.49703C17.3387 8.84357 17.6872 7.99406 17.6872 7.05743C17.6872 6.1208 17.3387 5.27129 16.6852 4.61783C15.3565 3.28911 13.1565 3.28911 11.8278 4.61783L5.61987 10.8257C4.79214 11.6535 4.33472 12.7644 4.33472 13.9624C4.33472 15.1386 4.79214 16.2495 5.61987 17.099C6.44759 17.9267 7.55848 18.3842 8.73472 18.3842Z" fill="#424242"/>
</svg>
