<svg width="40" height="40" viewBox="0 0 40 40" fill="none" xmlns="http://www.w3.org/2000/svg">
<path d="M34.5938 7.78125L32.2188 5.40625C31.6719 4.86719 30.7969 4.86719 30.2578 5.40625L27.7734 7.89063L32.1094 12.2266L34.5938 9.75C35.1328 9.19531 35.1328 8.32031 34.5938 7.78125ZM27.0391 8.63281L13.6016 22.5L12.5 27.5L17.5 26.3984L31.2969 12.8828L27.0391 8.63281Z" fill="#FCFCFC"/>
<path d="M30 20V31.7188C30 32.1172 29.6953 32.5078 29.2812 32.5078C28.8672 32.5078 8.26563 32.5 8.26563 32.5C7.82813 32.5 7.5 32.0781 7.5 31.7188V10.7812C7.5 10.3906 7.86719 10 8.32812 10H20L22.5 7.5H6.82813C5.8125 7.5 5 8.30469 5 9.32031V33.1719C5 34.1797 5.82031 35 6.82813 35H30.6797C31.6875 35 32.5 34.1797 32.5 33.1719V17.5L30 20Z" fill="#FCFCFC"/>
</svg>
