<svg width="569" height="500" viewBox="0 0 569 500" fill="none" xmlns="http://www.w3.org/2000/svg">
<path d="M455.228 39.251H457.759L461.16 45.2891C461.951 46.6953 462.646 47.9346 463.243 49.0068H463.296C463.56 48.5322 463.964 47.8203 464.509 46.8711C465.054 45.9219 465.353 45.3945 465.405 45.2891L468.78 39.251H471.312L464.351 50.8789V59H462.241V50.8789L455.228 39.251ZM473.236 51.9072C473.236 53.7002 473.649 55.124 474.476 56.1787C475.302 57.2334 476.33 57.7607 477.561 57.7607C478.773 57.7607 479.793 57.2334 480.619 56.1787C481.463 55.124 481.885 53.7002 481.885 51.9072C481.885 50.0791 481.463 48.6465 480.619 47.6094C479.775 46.5723 478.756 46.0537 477.561 46.0537C476.348 46.0537 475.319 46.5723 474.476 47.6094C473.649 48.6465 473.236 50.0791 473.236 51.9072ZM471.18 51.9072C471.18 49.7451 471.733 47.9434 472.841 46.502C473.966 45.0605 475.539 44.3398 477.561 44.3398C479.564 44.3398 481.129 45.0605 482.254 46.502C483.379 47.9434 483.941 49.7451 483.941 51.9072C483.941 52.8213 483.818 53.709 483.572 54.5703C483.344 55.4316 482.983 56.2402 482.491 56.9961C482.017 57.7344 481.349 58.332 480.487 58.7891C479.644 59.2461 478.668 59.4746 477.561 59.4746C476.471 59.4746 475.495 59.2549 474.634 58.8154C473.79 58.3584 473.122 57.7607 472.63 57.0225C472.155 56.2666 471.795 55.458 471.549 54.5967C471.303 53.7354 471.18 52.8389 471.18 51.9072ZM487.053 54.0166V44.8145H489.109V53.5947C489.109 56.3721 490.129 57.7607 492.168 57.7607C493.416 57.7607 494.365 57.2773 495.016 56.3105C495.684 55.3438 496.018 54.2012 496.018 52.8828V44.8145H498.021V59H496.07V56.7061C495.93 57.2861 495.49 57.8926 494.752 58.5254C494.031 59.1582 493.012 59.4746 491.693 59.4746C490.34 59.4746 489.224 59.0176 488.345 58.1035C487.483 57.1719 487.053 55.8096 487.053 54.0166ZM502.267 59V44.8145H504.218V46.8711C504.499 46.2383 504.965 45.6582 505.615 45.1309C506.266 44.6035 507.101 44.3398 508.12 44.3398C508.876 44.3398 509.544 44.4629 510.124 44.709V46.5547C509.491 46.3086 508.823 46.1855 508.12 46.1855C506.925 46.1855 505.993 46.6338 505.325 47.5303C504.657 48.4268 504.323 49.6133 504.323 51.0898V59H502.267ZM518.746 59V44.8145H520.75V46.9502C520.996 46.2998 521.462 45.7021 522.147 45.1572C522.833 44.6123 523.703 44.3398 524.758 44.3398C525.795 44.3398 526.586 44.6387 527.131 45.2363C527.676 45.8164 528.098 46.5723 528.396 47.5039C528.484 47.2754 528.625 47.0117 528.818 46.7129C529.012 46.4141 529.284 46.0713 529.636 45.6846C529.987 45.2979 530.453 44.9814 531.033 44.7354C531.631 44.4717 532.281 44.3398 532.984 44.3398C535.727 44.3398 537.098 46.168 537.098 49.8242V59H535.041V49.9824C535.041 48.6816 534.865 47.7061 534.514 47.0557C534.162 46.3877 533.494 46.0537 532.51 46.0537C531.49 46.0537 530.638 46.4844 529.952 47.3457C529.267 48.1895 528.924 49.2617 528.924 50.5625V59H526.92V49.9561C526.92 47.3545 526.059 46.0537 524.336 46.0537C523.264 46.0537 522.402 46.458 521.752 47.2666C521.119 48.0752 520.803 49.1299 520.803 50.4307V59H518.746ZM542.213 55.3613C542.213 56.0293 542.494 56.6006 543.057 57.0752C543.619 57.5322 544.393 57.7607 545.377 57.7607C546.625 57.7607 547.688 57.3564 548.567 56.5479C549.464 55.7393 549.912 54.7109 549.912 53.4629V51.4854C549.139 51.6787 547.908 51.9072 546.221 52.1709C544.85 52.417 543.839 52.7949 543.188 53.3047C542.538 53.8145 542.213 54.5 542.213 55.3613ZM540.156 55.5195C540.156 52.8828 542.195 51.248 546.273 50.6152C548.102 50.3164 549.314 50.0703 549.912 49.877V49.0596C549.912 48.1807 549.596 47.4512 548.963 46.8711C548.33 46.291 547.434 46.001 546.273 46.001C545.43 46.001 544.612 46.2031 543.821 46.6074C543.048 46.9941 542.389 47.5215 541.844 48.1895L540.525 47.082C541.229 46.2734 542.072 45.6143 543.057 45.1045C544.059 44.5947 545.113 44.3398 546.221 44.3398C550.018 44.3398 551.916 46.1943 551.916 49.9033V59H549.965V56.6797C549.684 57.4355 549.104 58.0947 548.225 58.6572C547.346 59.2021 546.309 59.4746 545.113 59.4746C543.549 59.4746 542.327 59.1055 541.448 58.3672C540.587 57.6289 540.156 56.6797 540.156 55.5195ZM556.214 41.624V38.9609H558.798V41.624H556.214ZM556.53 59V44.8145H558.534V59H556.53ZM563.57 59V38.5127H565.574V59H563.57ZM439.961 85.8809C439.961 83.543 440.523 81.7061 441.648 80.3701C442.773 79.0166 444.197 78.3398 445.92 78.3398C446.957 78.3398 447.854 78.6387 448.609 79.2363C449.383 79.834 449.928 80.5195 450.244 81.293V72.5127H452.248V93H450.297V90.4424C449.928 91.3213 449.356 92.0508 448.583 92.6309C447.827 93.1934 446.939 93.4746 445.92 93.4746C445.199 93.4746 444.496 93.3252 443.811 93.0264C443.143 92.7451 442.51 92.3232 441.912 91.7607C441.332 91.1807 440.857 90.3896 440.488 89.3877C440.137 88.3682 439.961 87.1992 439.961 85.8809ZM442.018 85.8809C442.018 87.6562 442.404 89.0801 443.178 90.1523C443.951 91.2246 444.953 91.7607 446.184 91.7607C447.326 91.7607 448.293 91.2334 449.084 90.1787C449.893 89.1064 450.297 87.6738 450.297 85.8809C450.297 84.1055 449.893 82.6904 449.084 81.6357C448.293 80.5811 447.326 80.0537 446.184 80.0537C444.936 80.0537 443.925 80.5898 443.151 81.6621C442.396 82.7168 442.018 84.123 442.018 85.8809ZM455.676 85.8018C455.676 83.5869 456.273 81.7939 457.469 80.4229C458.664 79.0342 460.211 78.3398 462.109 78.3398C464.043 78.3398 465.563 79.0166 466.671 80.3701C467.778 81.7061 468.332 83.4199 468.332 85.5117C468.332 85.7578 468.314 86.1094 468.279 86.5664H457.732C457.732 87.9902 458.128 89.2119 458.919 90.2314C459.71 91.251 460.809 91.7607 462.215 91.7607C463.129 91.7607 463.938 91.5498 464.641 91.1279C465.344 90.6885 465.889 90.1084 466.275 89.3877L468.016 89.915C467.576 90.9521 466.864 91.8047 465.88 92.4727C464.896 93.1406 463.674 93.4746 462.215 93.4746C460.246 93.4746 458.664 92.7715 457.469 91.3652C456.273 89.959 455.676 88.1045 455.676 85.8018ZM457.785 85.0107H466.275C466.275 83.6221 465.897 82.4531 465.142 81.5039C464.386 80.5371 463.375 80.0537 462.109 80.0537C460.826 80.0537 459.789 80.5459 458.998 81.5303C458.225 82.5146 457.82 83.6748 457.785 85.0107ZM469.967 80.5283V78.8145H472.445V74.2793H474.502V78.8145H478.246V80.5283H474.502V88.834C474.502 89.7129 474.669 90.3369 475.003 90.7061C475.337 91.0752 475.873 91.2598 476.611 91.2598H478.246V93H476.348C473.746 93 472.445 91.6729 472.445 89.0186V80.5283H469.967ZM482.228 89.3613C482.228 90.0293 482.509 90.6006 483.071 91.0752C483.634 91.5322 484.407 91.7607 485.392 91.7607C486.64 91.7607 487.703 91.3564 488.582 90.5479C489.479 89.7393 489.927 88.7109 489.927 87.4629V85.4854C489.153 85.6787 487.923 85.9072 486.235 86.1709C484.864 86.417 483.854 86.7949 483.203 87.3047C482.553 87.8145 482.228 88.5 482.228 89.3613ZM480.171 89.5195C480.171 86.8828 482.21 85.248 486.288 84.6152C488.116 84.3164 489.329 84.0703 489.927 83.877V83.0596C489.927 82.1807 489.61 81.4512 488.978 80.8711C488.345 80.291 487.448 80.001 486.288 80.001C485.444 80.001 484.627 80.2031 483.836 80.6074C483.062 80.9941 482.403 81.5215 481.858 82.1895L480.54 81.082C481.243 80.2734 482.087 79.6143 483.071 79.1045C484.073 78.5947 485.128 78.3398 486.235 78.3398C490.032 78.3398 491.931 80.1943 491.931 83.9033V93H489.979V90.6797C489.698 91.4355 489.118 92.0947 488.239 92.6572C487.36 93.2021 486.323 93.4746 485.128 93.4746C483.563 93.4746 482.342 93.1055 481.463 92.3672C480.602 91.6289 480.171 90.6797 480.171 89.5195ZM496.229 75.624V72.9609H498.812V75.624H496.229ZM496.545 93V78.8145H498.549V93H496.545ZM503.585 93V72.5127H505.589V93H503.585ZM508.964 90.2051L510.493 89.3086C511.53 90.9434 512.937 91.7607 514.712 91.7607C515.784 91.7607 516.637 91.5674 517.27 91.1807C517.92 90.7939 518.245 90.2314 518.245 89.4932C518.245 89.1768 518.166 88.8955 518.008 88.6494C517.85 88.3857 517.674 88.1748 517.48 88.0166C517.305 87.8408 516.979 87.6562 516.505 87.4629C516.03 87.252 515.635 87.1025 515.318 87.0146C515.02 86.9092 514.519 86.7422 513.815 86.5137C513.2 86.3203 512.673 86.127 512.233 85.9336C511.794 85.7402 511.337 85.4854 510.862 85.1689C510.388 84.835 510.019 84.4307 509.755 83.9561C509.509 83.4814 509.386 82.9365 509.386 82.3213C509.386 81.1436 509.86 80.1855 510.81 79.4473C511.759 78.709 513.06 78.3398 514.712 78.3398C515.872 78.3398 516.936 78.6475 517.902 79.2627C518.869 79.8779 519.563 80.5986 519.985 81.4248L518.614 82.3213C518.245 81.7061 517.709 81.1787 517.006 80.7393C516.32 80.2822 515.556 80.0537 514.712 80.0537C513.64 80.0537 512.822 80.2646 512.26 80.6865C511.715 81.0908 511.442 81.6445 511.442 82.3477C511.442 82.752 511.548 83.1211 511.759 83.4551C511.97 83.7715 512.286 84.0527 512.708 84.2988C513.147 84.5273 513.543 84.7119 513.895 84.8525C514.264 84.9756 514.747 85.1338 515.345 85.3271C515.854 85.4854 516.303 85.6348 516.689 85.7754C517.094 85.916 517.533 86.1094 518.008 86.3555C518.482 86.6016 518.878 86.8652 519.194 87.1465C519.511 87.4102 519.774 87.7529 519.985 88.1748C520.196 88.5791 520.302 89.0186 520.302 89.4932C520.302 90.6182 519.801 91.5674 518.799 92.3408C517.814 93.0967 516.452 93.4746 514.712 93.4746C513.446 93.4746 512.321 93.1934 511.337 92.6309C510.353 92.0508 509.562 91.2422 508.964 90.2051ZM528.027 78.8145H530.295L532.378 87.6211C532.817 89.6426 533.072 90.8115 533.143 91.1279H533.248C533.336 90.7061 533.477 90.0996 533.67 89.3086C533.863 88.5176 533.995 87.9551 534.065 87.6211L536.228 78.8145H538.653L540.842 87.7266C540.912 88.0254 541.035 88.5439 541.211 89.2822C541.387 90.0205 541.527 90.6357 541.633 91.1279H541.738C541.791 90.917 542.046 89.748 542.503 87.6211L544.586 78.8145H546.854L542.951 93H540.394L538.258 84.457C537.783 82.3125 537.528 81.1523 537.493 80.9766H537.388C536.966 82.9629 536.711 84.123 536.623 84.457L534.487 93H531.93L528.027 78.8145ZM549.358 75.624V72.9609H551.942V75.624H549.358ZM549.675 93V78.8145H551.679V93H549.675ZM556.715 93V72.5127H558.719V93H556.715ZM563.57 93V72.5127H565.574V93H563.57ZM485.233 123.361C485.233 124.029 485.515 124.601 486.077 125.075C486.64 125.532 487.413 125.761 488.397 125.761C489.646 125.761 490.709 125.356 491.588 124.548C492.484 123.739 492.933 122.711 492.933 121.463V119.485C492.159 119.679 490.929 119.907 489.241 120.171C487.87 120.417 486.859 120.795 486.209 121.305C485.559 121.814 485.233 122.5 485.233 123.361ZM483.177 123.52C483.177 120.883 485.216 119.248 489.294 118.615C491.122 118.316 492.335 118.07 492.933 117.877V117.06C492.933 116.181 492.616 115.451 491.983 114.871C491.351 114.291 490.454 114.001 489.294 114.001C488.45 114.001 487.633 114.203 486.842 114.607C486.068 114.994 485.409 115.521 484.864 116.189L483.546 115.082C484.249 114.273 485.093 113.614 486.077 113.104C487.079 112.595 488.134 112.34 489.241 112.34C493.038 112.34 494.937 114.194 494.937 117.903V127H492.985V124.68C492.704 125.436 492.124 126.095 491.245 126.657C490.366 127.202 489.329 127.475 488.134 127.475C486.569 127.475 485.348 127.105 484.469 126.367C483.607 125.629 483.177 124.68 483.177 123.52ZM501.186 119.881C501.186 121.639 501.546 123.062 502.267 124.152C502.987 125.225 503.98 125.761 505.246 125.761C506.441 125.761 507.435 125.233 508.226 124.179C509.017 123.124 509.412 121.691 509.412 119.881C509.412 118.176 509.034 116.778 508.278 115.688C507.54 114.599 506.529 114.054 505.246 114.054C504.051 114.054 503.075 114.607 502.319 115.715C501.563 116.805 501.186 118.193 501.186 119.881ZM499.182 133.196V112.814H501.133V115.372C501.537 114.458 502.117 113.729 502.873 113.184C503.646 112.621 504.525 112.34 505.51 112.34C507.232 112.34 508.656 113.025 509.781 114.396C510.906 115.768 511.469 117.596 511.469 119.881C511.469 122.324 510.88 124.205 509.702 125.523C508.524 126.824 507.127 127.475 505.51 127.475C504.455 127.475 503.559 127.202 502.82 126.657C502.082 126.095 501.537 125.392 501.186 124.548V133.196H499.182ZM516.9 119.881C516.9 121.639 517.261 123.062 517.981 124.152C518.702 125.225 519.695 125.761 520.961 125.761C522.156 125.761 523.149 125.233 523.94 124.179C524.731 123.124 525.127 121.691 525.127 119.881C525.127 118.176 524.749 116.778 523.993 115.688C523.255 114.599 522.244 114.054 520.961 114.054C519.766 114.054 518.79 114.607 518.034 115.715C517.278 116.805 516.9 118.193 516.9 119.881ZM514.896 133.196V112.814H516.848V115.372C517.252 114.458 517.832 113.729 518.588 113.184C519.361 112.621 520.24 112.34 521.225 112.34C522.947 112.34 524.371 113.025 525.496 114.396C526.621 115.768 527.184 117.596 527.184 119.881C527.184 122.324 526.595 124.205 525.417 125.523C524.239 126.824 522.842 127.475 521.225 127.475C520.17 127.475 519.273 127.202 518.535 126.657C517.797 126.095 517.252 125.392 516.9 124.548V133.196H514.896ZM529.504 119.802C529.504 117.587 530.102 115.794 531.297 114.423C532.492 113.034 534.039 112.34 535.938 112.34C537.871 112.34 539.392 113.017 540.499 114.37C541.606 115.706 542.16 117.42 542.16 119.512C542.16 119.758 542.143 120.109 542.107 120.566H531.561C531.561 121.99 531.956 123.212 532.747 124.231C533.538 125.251 534.637 125.761 536.043 125.761C536.957 125.761 537.766 125.55 538.469 125.128C539.172 124.688 539.717 124.108 540.104 123.388L541.844 123.915C541.404 124.952 540.692 125.805 539.708 126.473C538.724 127.141 537.502 127.475 536.043 127.475C534.074 127.475 532.492 126.771 531.297 125.365C530.102 123.959 529.504 122.104 529.504 119.802ZM531.613 119.011H540.104C540.104 117.622 539.726 116.453 538.97 115.504C538.214 114.537 537.203 114.054 535.938 114.054C534.654 114.054 533.617 114.546 532.826 115.53C532.053 116.515 531.648 117.675 531.613 119.011ZM546.432 123.361C546.432 124.029 546.713 124.601 547.275 125.075C547.838 125.532 548.611 125.761 549.596 125.761C550.844 125.761 551.907 125.356 552.786 124.548C553.683 123.739 554.131 122.711 554.131 121.463V119.485C553.357 119.679 552.127 119.907 550.439 120.171C549.068 120.417 548.058 120.795 547.407 121.305C546.757 121.814 546.432 122.5 546.432 123.361ZM544.375 123.52C544.375 120.883 546.414 119.248 550.492 118.615C552.32 118.316 553.533 118.07 554.131 117.877V117.06C554.131 116.181 553.814 115.451 553.182 114.871C552.549 114.291 551.652 114.001 550.492 114.001C549.648 114.001 548.831 114.203 548.04 114.607C547.267 114.994 546.607 115.521 546.062 116.189L544.744 115.082C545.447 114.273 546.291 113.614 547.275 113.104C548.277 112.595 549.332 112.34 550.439 112.34C554.236 112.34 556.135 114.194 556.135 117.903V127H554.184V124.68C553.902 125.436 553.322 126.095 552.443 126.657C551.564 127.202 550.527 127.475 549.332 127.475C547.768 127.475 546.546 127.105 545.667 126.367C544.806 125.629 544.375 124.68 544.375 123.52ZM560.222 127V112.814H562.173V114.871C562.454 114.238 562.92 113.658 563.57 113.131C564.221 112.604 565.056 112.34 566.075 112.34C566.831 112.34 567.499 112.463 568.079 112.709V114.555C567.446 114.309 566.778 114.186 566.075 114.186C564.88 114.186 563.948 114.634 563.28 115.53C562.612 116.427 562.278 117.613 562.278 119.09V127H560.222ZM505.984 161V140.513H507.988V149.108H508.041C508.393 148.353 508.955 147.702 509.729 147.157C510.52 146.612 511.416 146.34 512.418 146.34C515.477 146.34 517.006 148.168 517.006 151.824V161H515.002V152.167C515.002 149.425 514.018 148.054 512.049 148.054C510.959 148.054 510.01 148.502 509.201 149.398C508.393 150.295 507.988 151.358 507.988 152.589V161H505.984ZM520.144 153.802C520.144 151.587 520.741 149.794 521.937 148.423C523.132 147.034 524.679 146.34 526.577 146.34C528.511 146.34 530.031 147.017 531.139 148.37C532.246 149.706 532.8 151.42 532.8 153.512C532.8 153.758 532.782 154.109 532.747 154.566H522.2C522.2 155.99 522.596 157.212 523.387 158.231C524.178 159.251 525.276 159.761 526.683 159.761C527.597 159.761 528.405 159.55 529.108 159.128C529.812 158.688 530.356 158.108 530.743 157.388L532.483 157.915C532.044 158.952 531.332 159.805 530.348 160.473C529.363 161.141 528.142 161.475 526.683 161.475C524.714 161.475 523.132 160.771 521.937 159.365C520.741 157.959 520.144 156.104 520.144 153.802ZM522.253 153.011H530.743C530.743 151.622 530.365 150.453 529.609 149.504C528.854 148.537 527.843 148.054 526.577 148.054C525.294 148.054 524.257 148.546 523.466 149.53C522.692 150.515 522.288 151.675 522.253 153.011ZM536.017 161V146.814H537.968V148.871C538.249 148.238 538.715 147.658 539.365 147.131C540.016 146.604 540.851 146.34 541.87 146.34C542.626 146.34 543.294 146.463 543.874 146.709V148.555C543.241 148.309 542.573 148.186 541.87 148.186C540.675 148.186 539.743 148.634 539.075 149.53C538.407 150.427 538.073 151.613 538.073 153.09V161H536.017ZM544.955 153.802C544.955 151.587 545.553 149.794 546.748 148.423C547.943 147.034 549.49 146.34 551.389 146.34C553.322 146.34 554.843 147.017 555.95 148.37C557.058 149.706 557.611 151.42 557.611 153.512C557.611 153.758 557.594 154.109 557.559 154.566H547.012C547.012 155.99 547.407 157.212 548.198 158.231C548.989 159.251 550.088 159.761 551.494 159.761C552.408 159.761 553.217 159.55 553.92 159.128C554.623 158.688 555.168 158.108 555.555 157.388L557.295 157.915C556.855 158.952 556.144 159.805 555.159 160.473C554.175 161.141 552.953 161.475 551.494 161.475C549.525 161.475 547.943 160.771 546.748 159.365C545.553 157.959 544.955 156.104 544.955 153.802ZM547.064 153.011H555.555C555.555 151.622 555.177 150.453 554.421 149.504C553.665 148.537 552.654 148.054 551.389 148.054C550.105 148.054 549.068 148.546 548.277 149.53C547.504 150.515 547.1 151.675 547.064 153.011ZM561.698 161V157.862H565.021V161H561.698Z" fill="#424242"/>
<g clip-path="url(#clip0_332_759)">
<path d="M172.479 45.6109C224.14 11.5658 296.738 18.5053 342.408 69.0391C367.378 96.6785 377.521 134.698 403.44 161.744C432.621 192.171 467.497 221.767 480.723 263.286C494.78 307.414 482.443 358.007 451.008 391.756C412.752 432.799 356.524 420.463 303.381 419.81C85.7652 417.082 -75.9785 271.827 129.834 92.7639C147.034 77.6987 155.397 56.8209 172.479 45.6109Z" fill="#B1EBDF"/>
<path d="M365.362 172.598H295.967C292.052 172.598 288.849 169.395 288.849 165.48V120.403C288.849 116.489 292.052 113.286 295.967 113.286H365.362C369.276 113.286 372.479 116.489 372.479 120.403V165.48C372.479 169.395 369.276 172.598 365.362 172.598Z" fill="#FCFCFC"/>
<path d="M285.054 121.649V166.192C285.054 172.361 290.036 177.343 296.204 177.343H362.99C369.158 177.343 374.14 172.361 374.14 166.192V121.649C374.14 115.48 369.158 110.498 362.99 110.498H296.204C290.036 110.498 285.054 115.48 285.054 121.649ZM290.866 167.319C290.807 166.963 290.629 166.607 290.629 166.251V121.708C290.629 121.115 290.807 120.581 290.985 120.107L314.532 140.332L290.866 167.319ZM362.99 116.073C363.346 116.073 363.701 116.192 364.057 116.311L329.597 145.848L295.137 116.311C295.493 116.251 295.789 116.073 296.204 116.073H362.99ZM344.662 140.213L368.209 119.988C368.387 120.522 368.565 121.056 368.565 121.59V166.133C368.565 166.548 368.446 166.845 368.328 167.2L344.662 140.213ZM296.204 171.767C295.611 171.767 295.137 171.589 294.603 171.471L318.743 143.891L327.758 151.661C328.292 152.135 328.945 152.313 329.597 152.313C330.249 152.313 330.902 152.076 331.436 151.661L340.451 143.891L364.591 171.471C364.057 171.649 363.583 171.767 362.99 171.767H296.204Z" fill="#7FD4B0"/>
<path d="M399.169 300.119H346.975C343.06 300.119 339.857 296.916 339.857 293.001V260.142C339.857 256.228 343.06 253.025 346.975 253.025H399.169C403.084 253.025 406.287 256.228 406.287 260.142V293.001C406.287 296.916 403.084 300.119 399.169 300.119Z" fill="#FCFCFC"/>
<path d="M337.959 259.371V294.603C337.959 299.466 341.874 303.44 346.797 303.44H399.644C404.508 303.44 408.481 299.526 408.481 294.603V259.371C408.481 254.508 404.567 250.534 399.644 250.534H346.797C341.933 250.593 337.959 254.508 337.959 259.371ZM342.527 295.492C342.467 295.196 342.349 294.959 342.349 294.603V259.371C342.349 258.897 342.467 258.482 342.586 258.067L361.21 274.021L342.527 295.492ZM399.644 254.982C399.94 254.982 400.178 255.101 400.474 255.16L373.25 278.529L346.026 255.16C346.322 255.101 346.56 254.982 346.856 254.982H399.644ZM385.112 274.081L403.736 258.126C403.855 258.541 403.974 258.956 403.974 259.431V294.662C403.974 294.959 403.855 295.255 403.796 295.552L385.112 274.081ZM346.797 298.992C346.322 298.992 345.967 298.873 345.551 298.755L364.65 276.928L371.827 283.037C372.242 283.393 372.776 283.571 373.25 283.571C373.784 283.571 374.258 283.393 374.674 283.037L381.85 276.928L400.949 298.755C400.534 298.873 400.118 298.992 399.703 298.992H346.797Z" fill="#57C796"/>
<path d="M424.911 114.116V137.96C424.911 141.281 427.58 143.95 430.902 143.95H466.667C469.988 143.95 472.657 141.281 472.657 137.96V114.116C472.657 110.795 469.988 108.126 466.667 108.126H430.902C427.58 108.126 424.911 110.795 424.911 114.116ZM428.055 138.553C427.995 138.375 427.936 138.197 427.936 137.96V114.116C427.936 113.82 427.995 113.523 428.114 113.227L440.747 124.021L428.055 138.553ZM466.667 111.151C466.845 111.151 467.023 111.21 467.201 111.269L448.755 127.106L430.309 111.269C430.486 111.21 430.664 111.151 430.842 111.151H466.667ZM456.88 124.081L469.514 113.286C469.573 113.582 469.692 113.82 469.692 114.176V138.019C469.692 138.197 469.632 138.434 469.573 138.612L456.88 124.081ZM430.902 140.925C430.605 140.925 430.308 140.866 430.071 140.747L443.001 125.979L447.865 130.13C448.161 130.368 448.517 130.486 448.814 130.486C449.17 130.486 449.526 130.368 449.763 130.13L454.626 125.979L467.556 140.747C467.26 140.807 467.023 140.925 466.726 140.925H430.902Z" fill="#B1EBDF"/>
<path d="M434.757 237.248H413.405C409.49 237.248 406.287 234.045 406.287 230.131V217.438C406.287 213.523 409.49 210.32 413.405 210.32H434.757C438.671 210.32 441.874 213.523 441.874 217.438V230.131C441.874 234.045 438.671 237.248 434.757 237.248Z" fill="#FCFCFC"/>
<path d="M405.397 214.472V232.977C405.397 235.528 407.473 237.604 410.024 237.604H437.782C440.332 237.604 442.408 235.528 442.408 232.977V214.472C442.408 211.922 440.332 209.846 437.782 209.846H410.024C407.473 209.905 405.397 211.922 405.397 214.472ZM407.829 233.452C407.77 233.274 407.711 233.155 407.711 232.977V214.472C407.711 214.235 407.77 213.998 407.829 213.82L417.616 222.183L407.829 233.452ZM437.782 212.218C437.96 212.218 438.078 212.278 438.197 212.278L423.903 224.555L409.609 212.278C409.727 212.278 409.905 212.218 410.024 212.218H437.782ZM430.131 222.183L439.917 213.82C439.976 214.057 440.036 214.235 440.036 214.472V232.977C440.036 233.155 439.976 233.274 439.917 233.452L430.131 222.183ZM410.024 235.291C409.787 235.291 409.549 235.231 409.371 235.172L419.395 223.725L423.132 226.928C423.369 227.106 423.606 227.224 423.903 227.224C424.199 227.224 424.437 227.106 424.674 226.928L428.411 223.725L438.434 235.172C438.197 235.231 438.019 235.291 437.782 235.291H410.024Z" fill="#7FD4B0"/>
<path d="M363.227 62.0404V81.2574C363.227 83.9265 365.362 86.0617 368.031 86.0617H396.797C399.466 86.0617 401.601 83.9265 401.601 81.2574V62.0404C401.601 59.3713 399.466 57.2361 396.797 57.2361H368.031C365.421 57.2361 363.227 59.3713 363.227 62.0404ZM365.777 81.7319C365.718 81.554 365.658 81.4354 365.658 81.2574V62.0404C365.658 61.8031 365.718 61.5659 365.777 61.3286L375.919 70.0475L365.777 81.7319ZM396.856 59.6679C397.034 59.6679 397.153 59.7272 397.331 59.7865L382.503 72.5386L367.675 59.7865C367.853 59.7272 367.972 59.6679 368.149 59.6679H396.856ZM388.968 70.0475L399.11 61.3286C399.17 61.5659 399.229 61.8031 399.229 62.0404V81.2574C399.229 81.4354 399.17 81.554 399.11 81.7319L388.968 70.0475ZM368.031 83.6299C367.794 83.6299 367.556 83.5706 367.319 83.5113L377.699 71.6489L381.613 74.9704C381.851 75.1483 382.088 75.2669 382.384 75.2669C382.681 75.2669 382.918 75.1483 383.155 74.9704L387.07 71.6489L397.45 83.5113C397.212 83.5706 397.034 83.6299 396.738 83.6299H368.031Z" fill="#57C796"/>
<path d="M315.065 182.859C316.048 182.859 316.845 182.062 316.845 181.079C316.845 180.097 316.048 179.3 315.065 179.3C314.083 179.3 313.286 180.097 313.286 181.079C313.286 182.062 314.083 182.859 315.065 182.859Z" fill="#35A072"/>
<path d="M309.43 185.884C310.413 185.884 311.21 185.087 311.21 184.104C311.21 183.122 310.413 182.325 309.43 182.325C308.448 182.325 307.651 183.122 307.651 184.104C307.651 185.087 308.448 185.884 309.43 185.884Z" fill="#35A072"/>
<path d="M303.915 189.087C304.897 189.087 305.694 188.29 305.694 187.307C305.694 186.324 304.897 185.528 303.915 185.528C302.932 185.528 302.135 186.324 302.135 187.307C302.135 188.29 302.932 189.087 303.915 189.087Z" fill="#35A072"/>
<path d="M299.466 193.654C300.449 193.654 301.246 192.857 301.246 191.874C301.246 190.891 300.449 190.095 299.466 190.095C298.484 190.095 297.687 190.891 297.687 191.874C297.687 192.857 298.484 193.654 299.466 193.654Z" fill="#35A072"/>
<path d="M295.67 198.755C296.653 198.755 297.449 197.958 297.449 196.975C297.449 195.992 296.653 195.196 295.67 195.196C294.687 195.196 293.891 195.992 293.891 196.975C293.891 197.958 294.687 198.755 295.67 198.755Z" fill="#35A072"/>
<path d="M292.764 204.448C293.747 204.448 294.544 203.652 294.544 202.669C294.544 201.686 293.747 200.89 292.764 200.89C291.782 200.89 290.985 201.686 290.985 202.669C290.985 203.652 291.782 204.448 292.764 204.448Z" fill="#35A072"/>
<path d="M290.925 210.557C291.908 210.557 292.705 209.761 292.705 208.778C292.705 207.795 291.908 206.999 290.925 206.999C289.943 206.999 289.146 207.795 289.146 208.778C289.146 209.761 289.943 210.557 290.925 210.557Z" fill="#35A072"/>
<path d="M324.852 235.765C325.834 235.765 326.631 234.969 326.631 233.986C326.631 233.003 325.834 232.207 324.852 232.207C323.869 232.207 323.072 233.003 323.072 233.986C323.072 234.969 323.869 235.765 324.852 235.765Z" fill="#35A072"/>
<path d="M318.446 235.765C319.429 235.765 320.226 234.969 320.226 233.986C320.226 233.003 319.429 232.207 318.446 232.207C317.464 232.207 316.667 233.003 316.667 233.986C316.667 234.969 317.464 235.765 318.446 235.765Z" fill="#35A072"/>
<path d="M312.041 235.765C313.023 235.765 313.82 234.969 313.82 233.986C313.82 233.003 313.023 232.207 312.041 232.207C311.058 232.207 310.261 233.003 310.261 233.986C310.261 234.969 311.058 235.765 312.041 235.765Z" fill="#35A072"/>
<path d="M305.635 235.765C306.618 235.765 307.414 234.969 307.414 233.986C307.414 233.003 306.618 232.207 305.635 232.207C304.652 232.207 303.855 233.003 303.855 233.986C303.855 234.969 304.652 235.765 305.635 235.765Z" fill="#35A072"/>
<path d="M299.229 235.765C300.212 235.765 301.008 234.969 301.008 233.986C301.008 233.003 300.212 232.207 299.229 232.207C298.246 232.207 297.45 233.003 297.45 233.986C297.45 234.969 298.246 235.765 299.229 235.765Z" fill="#35A072"/>
<path d="M398.992 225.445C399.974 225.445 400.771 224.648 400.771 223.666C400.771 222.683 399.974 221.886 398.992 221.886C398.009 221.886 397.212 222.683 397.212 223.666C397.212 224.648 398.009 225.445 398.992 225.445Z" fill="#35A072"/>
<path d="M392.586 225.267C393.569 225.267 394.365 224.47 394.365 223.487C394.365 222.505 393.569 221.708 392.586 221.708C391.603 221.708 390.807 222.505 390.807 223.487C390.807 224.47 391.603 225.267 392.586 225.267Z" fill="#35A072"/>
<path d="M386.18 225.089C387.163 225.089 387.96 224.292 387.96 223.31C387.96 222.327 387.163 221.53 386.18 221.53C385.198 221.53 384.401 222.327 384.401 223.31C384.401 224.292 385.198 225.089 386.18 225.089Z" fill="#35A072"/>
<path d="M379.953 226.631C380.935 226.631 381.732 225.834 381.732 224.852C381.732 223.869 380.935 223.072 379.953 223.072C378.97 223.072 378.173 223.869 378.173 224.852C378.173 225.834 378.97 226.631 379.953 226.631Z" fill="#35A072"/>
<path d="M373.784 228.351C374.767 228.351 375.564 227.555 375.564 226.572C375.564 225.589 374.767 224.792 373.784 224.792C372.802 224.792 372.005 225.589 372.005 226.572C372.005 227.555 372.802 228.351 373.784 228.351Z" fill="#35A072"/>
<path d="M368.505 231.91C369.488 231.91 370.285 231.113 370.285 230.13C370.285 229.148 369.488 228.351 368.505 228.351C367.523 228.351 366.726 229.148 366.726 230.13C366.726 231.113 367.523 231.91 368.505 231.91Z" fill="#35A072"/>
<path d="M363.701 236.062C364.684 236.062 365.481 235.265 365.481 234.282C365.481 233.3 364.684 232.503 363.701 232.503C362.719 232.503 361.922 233.3 361.922 234.282C361.922 235.265 362.719 236.062 363.701 236.062Z" fill="#35A072"/>
<path d="M359.846 241.162C360.828 241.162 361.625 240.366 361.625 239.383C361.625 238.4 360.828 237.604 359.846 237.604C358.863 237.604 358.066 238.4 358.066 239.383C358.066 240.366 358.863 241.162 359.846 241.162Z" fill="#35A072"/>
<path d="M357.117 246.916C358.1 246.916 358.897 246.119 358.897 245.136C358.897 244.154 358.1 243.357 357.117 243.357C356.135 243.357 355.338 244.154 355.338 245.136C355.338 246.119 356.135 246.916 357.117 246.916Z" fill="#35A072"/>
<path d="M428.826 151.305C429.808 151.305 430.605 150.508 430.605 149.526C430.605 148.543 429.808 147.746 428.826 147.746C427.843 147.746 427.046 148.543 427.046 149.526C427.046 150.508 427.843 151.305 428.826 151.305Z" fill="#35A072"/>
<path d="M423.547 154.982C424.53 154.982 425.326 154.186 425.326 153.203C425.326 152.22 424.53 151.424 423.547 151.424C422.564 151.424 421.768 152.22 421.768 153.203C421.768 154.186 422.564 154.982 423.547 154.982Z" fill="#35A072"/>
<path d="M417.675 157.414C418.658 157.414 419.454 156.617 419.454 155.635C419.454 154.652 418.658 153.855 417.675 153.855C416.692 153.855 415.896 154.652 415.896 155.635C415.896 156.617 416.692 157.414 417.675 157.414Z" fill="#35A072"/>
<path d="M411.684 159.727C412.667 159.727 413.464 158.931 413.464 157.948C413.464 156.965 412.667 156.168 411.684 156.168C410.701 156.168 409.905 156.965 409.905 157.948C409.905 158.931 410.701 159.727 411.684 159.727Z" fill="#35A072"/>
<path d="M405.457 161.091C406.439 161.091 407.236 160.295 407.236 159.312C407.236 158.329 406.439 157.533 405.457 157.533C404.474 157.533 403.677 158.329 403.677 159.312C403.677 160.295 404.474 161.091 405.457 161.091Z" fill="#35A072"/>
<path d="M399.17 162.337C400.153 162.337 400.949 161.54 400.949 160.558C400.949 159.575 400.153 158.778 399.17 158.778C398.187 158.778 397.391 159.575 397.391 160.558C397.391 161.54 398.187 162.337 399.17 162.337Z" fill="#35A072"/>
<path d="M392.764 162.871C393.747 162.871 394.544 162.074 394.544 161.091C394.544 160.109 393.747 159.312 392.764 159.312C391.782 159.312 390.985 160.109 390.985 161.091C390.985 162.074 391.782 162.871 392.764 162.871Z" fill="#35A072"/>
<path d="M386.358 163.108C387.341 163.108 388.138 162.311 388.138 161.328C388.138 160.346 387.341 159.549 386.358 159.549C385.376 159.549 384.579 160.346 384.579 161.328C384.579 162.311 385.376 163.108 386.358 163.108Z" fill="#35A072"/>
<path d="M379.953 162.93C380.935 162.93 381.732 162.133 381.732 161.151C381.732 160.168 380.935 159.371 379.953 159.371C378.97 159.371 378.173 160.168 378.173 161.151C378.173 162.133 378.97 162.93 379.953 162.93Z" fill="#35A072"/>
<path d="M355.753 76.2158C356.736 76.2158 357.532 75.4192 357.532 74.4365C357.532 73.4538 356.736 72.6571 355.753 72.6571C354.77 72.6571 353.974 73.4538 353.974 74.4365C353.974 75.4192 354.77 76.2158 355.753 76.2158Z" fill="#35A072"/>
<path d="M349.585 77.8766C350.568 77.8766 351.364 77.0799 351.364 76.0972C351.364 75.1145 350.568 74.3179 349.585 74.3179C348.602 74.3179 347.806 75.1145 347.806 76.0972C347.806 77.0799 348.602 77.8766 349.585 77.8766Z" fill="#35A072"/>
<path d="M344.484 81.6133C345.467 81.6133 346.263 80.8166 346.263 79.8339C346.263 78.8512 345.467 78.0546 344.484 78.0546C343.501 78.0546 342.705 78.8512 342.705 79.8339C342.705 80.8166 343.501 81.6133 344.484 81.6133Z" fill="#35A072"/>
<path d="M340.688 86.5361C341.671 86.5361 342.467 85.7395 342.467 84.7568C342.467 83.7741 341.671 82.9774 340.688 82.9774C339.705 82.9774 338.909 83.7741 338.909 84.7568C338.909 85.7395 339.705 86.5361 340.688 86.5361Z" fill="#35A072"/>
<path d="M338.434 92.5266C339.417 92.5266 340.214 91.73 340.214 90.7473C340.214 89.7645 339.417 88.9679 338.434 88.9679C337.451 88.9679 336.655 89.7645 336.655 90.7473C336.655 91.73 337.451 92.5266 338.434 92.5266Z" fill="#35A072"/>
<path d="M337.723 98.873C338.705 98.873 339.502 98.0764 339.502 97.0937C339.502 96.111 338.705 95.3143 337.723 95.3143C336.74 95.3143 335.943 96.111 335.943 97.0937C335.943 98.0764 336.74 98.873 337.723 98.873Z" fill="#35A072"/>
<path d="M338.197 105.279C339.18 105.279 339.977 104.482 339.977 103.499C339.977 102.517 339.18 101.72 338.197 101.72C337.215 101.72 336.418 102.517 336.418 103.499C336.418 104.482 337.215 105.279 338.197 105.279Z" fill="#35A072"/>
<path d="M234.757 422.301C235.232 422.123 235.647 422.005 236.121 421.827C236.121 421.827 235.943 421.471 235.647 420.759C230.783 410.676 190.332 330.961 112.337 315.658C111.744 315.54 111.092 315.421 110.498 315.303C100.593 313.523 90.1544 312.752 79.1224 313.286C79.1224 313.286 63.642 313.582 44.6028 326.987C44.1876 327.284 43.7725 327.58 43.298 327.877C34.757 334.104 25.5637 343.061 16.7262 355.753L16.1924 356.465C16.1924 356.465 16.311 356.821 16.6076 357.473C19.3359 363.76 35.2315 397.272 72.8353 419.276C73.3098 419.573 73.8436 419.87 74.3181 420.107C108.423 439.62 159.846 449.466 234.757 422.301Z" fill="#1F5C42"/>
<path d="M235.943 422.657L236.121 421.827L236.299 420.996L235.647 420.818L16.7262 355.872L16.1924 356.584C16.1924 356.584 16.311 356.939 16.6076 357.592L234.757 422.301L235.943 422.657Z" fill="#FCFCFC"/>
<path d="M74.3771 420.285L107.058 383.63L105.99 382.325L72.8943 419.455C73.3688 419.751 73.8433 419.988 74.3771 420.285ZM147.034 395.433L148.873 395.67L112.337 315.718C111.744 315.599 111.091 315.481 110.498 315.362L147.034 395.433ZM65.0651 371.708L66.37 370.878L44.5431 327.047C44.128 327.343 43.7128 327.64 43.2383 327.936L65.0651 371.708Z" fill="#FCFCFC"/>
<path d="M231.673 418.802L232.385 419.336C232.385 419.336 232.503 419.098 232.8 418.742C236.596 412.752 265.659 363.998 247.45 316.963C247.331 316.607 247.153 316.192 247.035 315.836C244.662 309.905 241.519 304.033 237.485 298.28C237.485 298.28 232.088 290.095 218.446 284.401C218.15 284.282 217.853 284.164 217.497 284.045C211.269 281.554 203.322 279.656 193.535 279.241H192.942C192.942 279.241 192.823 279.419 192.527 279.834C190.095 283.393 177.462 303.262 178.411 330.961C178.411 331.317 178.411 331.672 178.47 332.028C179.597 356.88 191.756 387.782 231.673 418.802Z" fill="#57C796"/>
<path d="M231.91 419.573L232.444 419.395L232.978 419.217L232.859 418.802L193.535 279.359H192.942C192.942 279.359 192.823 279.537 192.527 279.952L231.673 418.92L231.91 419.573Z" fill="#FCFCFC"/>
<path d="M178.47 332.029L209.193 337.189L209.49 336.18L178.351 330.961C178.41 331.317 178.41 331.673 178.47 332.029ZM216.429 362.634L216.904 363.701L247.449 317.023C247.331 316.667 247.153 316.252 247.034 315.896L216.429 362.634ZM201.364 310.617L202.254 311.032L218.387 284.46C218.09 284.342 217.794 284.223 217.438 284.104L201.364 310.617Z" fill="#FCFCFC"/>
<path d="M232.147 422.005C232.562 422.064 232.977 422.064 233.333 422.123V421.234C233.333 412.455 231.495 342.408 177.639 304.923C177.224 304.626 176.809 304.33 176.334 304.033C169.454 299.407 161.744 295.255 153.144 291.874C153.144 291.874 141.222 286.773 121.886 289.739C121.471 289.798 120.996 289.858 120.581 289.917C111.803 291.4 101.542 294.543 90.2136 300.474C89.9763 300.593 89.7984 300.712 89.5611 300.83C89.5611 300.83 89.5611 301.127 89.5018 301.72C89.2646 307.058 89.2052 336.121 109.905 364.531C110.202 364.887 110.439 365.243 110.735 365.658C129.597 390.925 165.243 415.48 232.147 422.005Z" fill="#7FD4B0"/>
<path d="M232.918 422.657L233.333 422.123L233.749 421.59L233.333 421.234L90.2137 300.474C89.9765 300.593 89.7985 300.712 89.5613 300.83C89.5613 300.83 89.5613 301.127 89.502 301.72L232.088 422.005L232.918 422.657Z" fill="#FCFCFC"/>
<path d="M110.736 365.599L148.933 350.949L148.577 349.644L109.905 364.472C110.202 364.887 110.439 365.243 110.736 365.599ZM175.148 372.954L176.453 373.784L177.699 304.863C177.284 304.567 176.869 304.27 176.394 303.974L175.148 372.954ZM121.293 328.173L122.598 328.054L121.886 289.679C121.471 289.739 120.997 289.798 120.581 289.857L121.293 328.173Z" fill="#FCFCFC"/>
<path d="M266.726 425.445L264.531 442.645L257.117 445.314L259.075 424.674L266.726 425.445ZM232.918 425.445L230.724 442.645L223.31 445.314L225.267 424.674L232.918 425.445Z" fill="#81D5B1"/>
<path d="M242.527 212.633L230.842 227.521L241.993 233.571L254.508 218.09L242.527 212.633Z" fill="#02C39A"/>
<path d="M272.479 213.701C272.124 211.447 271.886 209.134 271.708 206.821C271.59 204.982 271.649 203.144 271.708 201.305C271.886 199.466 271.886 197.628 271.768 195.908C271.768 195.967 271.708 196.026 271.708 196.086C271.59 194.543 271.353 193.001 270.937 191.518C269.751 187.782 267.319 184.282 263.523 182.978C255.931 180.427 246.679 187.545 242.823 198.932C238.968 210.32 241.993 221.649 249.585 224.199C254.982 226.038 261.21 222.954 265.718 216.963C267.497 216.904 269.277 216.785 270.997 216.311C271.59 216.133 272.183 215.896 272.479 215.362C272.657 214.828 272.598 214.235 272.479 213.701Z" fill="#81D5B1"/>
<path d="M278.766 194.958C281.198 194.128 283.274 192.052 283.749 189.561C284.223 187.011 282.8 184.164 280.368 183.333C278.529 182.681 276.335 183.215 274.674 182.266C273.665 181.673 273.013 180.664 272.301 179.775C268.387 174.792 261.922 171.945 255.635 172.42C249.348 172.894 243.357 176.631 240.214 182.088C237.544 186.714 236.892 192.23 237.367 197.509C237.841 202.788 239.442 207.948 240.985 212.989C243.594 207.829 246.204 202.669 248.814 197.568C249.407 196.441 250 195.255 251.068 194.603C252.135 193.95 253.796 194.009 254.389 195.077C254.804 195.789 254.686 196.679 254.686 197.45C254.686 198.28 254.804 199.229 255.516 199.585C256.287 200 257.295 199.526 258.007 198.992C259.549 197.865 260.913 196.501 262.159 195.018C262.93 194.069 263.701 192.883 264.828 192.408C266.074 191.874 267.141 192.467 268.268 193.12C269.81 194.009 271.412 194.84 273.191 195.196C275.03 195.552 276.987 195.552 278.766 194.958ZM270.937 302.847C273.25 317.675 275.445 343.476 277.758 358.304C281.139 380.071 270.403 412.633 266.429 434.282C263.523 433.926 260.973 433.037 258.066 432.681C259.015 395.967 257.355 349.17 254.982 312.515C260.142 313.167 265.777 302.195 270.937 302.847Z" fill="#1F5C42"/>
<path d="M234.935 313.167C237.96 313.345 240.925 310.617 243.95 310.854C247.628 311.091 251.601 311.803 255.101 312.871C258.6 313.938 262.693 310.676 266.133 309.49C266.845 315.421 265.599 325.978 264.472 331.85C261.862 345.611 258.838 359.253 255.338 372.776C253.44 380.249 247.805 387.426 244.84 394.543C243.594 397.568 242.408 400.712 241.281 403.796C238.909 410.201 234.816 428.232 232.444 434.638C229.537 434.401 226.572 434.341 223.666 434.104C223.962 427.639 226.512 409.015 226.75 402.55C227.224 391.755 232.622 380.427 236.892 370.462C234.757 360.142 234.698 348.932 234.757 338.375C234.816 329.063 234.875 322.42 234.935 313.167Z" fill="#267352"/>
<path d="M275.919 273.31C276.987 273.487 278.233 273.428 279.063 272.716C279.478 272.361 279.775 271.827 280.071 271.412C281.08 270.225 282.8 269.632 284.282 269.988C287.367 270.759 288.849 274.674 291.934 275.326C292.408 275.445 292.883 275.445 293.357 275.623C293.832 275.801 294.247 276.097 294.306 276.572C294.425 277.165 294.01 277.639 293.594 278.114C293.061 278.707 292.467 279.3 291.934 279.893C291.696 280.13 291.4 280.427 291.103 280.546C290.451 280.842 289.62 280.546 289.087 280.961C288.612 281.317 288.494 282.028 287.96 282.384C287.189 282.859 286.121 282.147 285.231 282.503C284.757 282.681 284.46 283.096 284.104 283.333C283.452 283.748 282.562 283.689 281.791 283.452C281.02 283.155 280.368 282.681 279.715 282.325C278.826 281.85 277.877 281.495 276.928 281.198C274.318 280.546 271.53 280.724 268.802 280.961C268.683 278.826 268.624 276.69 268.505 274.555C268.505 274.199 268.505 273.784 268.683 273.428C269.039 272.776 269.988 272.776 270.759 272.954C271.708 273.191 272.183 273.132 273.072 272.954C273.962 272.776 275.03 273.191 275.919 273.31Z" fill="#81D5B1"/>
<path d="M282.918 281.495C282.621 281.02 282.74 280.368 283.215 280.071L300.296 268.802C300.771 268.505 301.423 268.624 301.72 269.098C302.016 269.573 301.898 270.225 301.423 270.522L284.342 281.791C283.867 282.088 283.215 281.969 282.918 281.495Z" fill="#1F5C42"/>
<path d="M269.276 433.749C269.514 433.215 270.166 433.037 270.581 433.393C272.42 434.935 277.343 438.434 287.129 440.688C287.129 440.688 289.502 441.163 291.222 443.95H254.923V437.545C254.923 436.833 255.753 436.477 256.287 436.892L257.711 438.078C258.363 438.671 259.253 438.968 260.083 438.968L265.302 439.027C266.429 439.027 267.438 438.375 267.853 437.307L269.276 433.749Z" fill="#B1EBDF"/>
<path d="M291.263 447.703H254.964V443.967H291.263V447.703Z" fill="#267352"/>
<path d="M233.808 435.765C234.164 435.35 234.876 435.409 235.172 435.884C236.358 437.96 239.858 442.883 248.221 448.399C248.221 448.399 250.297 449.704 251.008 452.847L216.845 440.57L219.039 434.52C219.277 433.867 220.166 433.749 220.522 434.401L221.412 436.002C221.827 436.774 222.539 437.367 223.369 437.663L228.233 439.443C229.3 439.858 230.486 439.502 231.198 438.672L233.808 435.765Z" fill="#B1EBDF"/>
<path d="M249.676 456.383L215.523 444.089L216.788 440.573L250.942 452.867L249.676 456.383Z" fill="#267352"/>
<path d="M269.81 270.285C272.42 279.004 274.377 292.705 275.623 301.72C275.919 303.855 275.741 311.922 274.259 313.464C273.369 314.413 250.415 316.963 240.866 320.107C239.561 320.522 233.333 322.954 232.088 322.42C230.308 321.649 229.359 313.82 229.775 311.981C235.291 288.197 235.291 305.694 227.224 258.897C225.623 249.526 222.538 240.866 225.741 231.91C226.809 228.944 234.875 220.285 234.875 220.285C234.875 220.285 237.604 223.191 240.391 224.852C242.705 226.216 245.729 228.648 247.687 229.122C256.643 231.198 266.667 259.787 269.81 270.285Z" fill="#02C39A"/>
<path d="M258.719 333.749C259.49 335.409 259.846 337.248 260.024 339.027C260.261 342.171 259.905 345.314 259.015 348.28C257.71 347.983 256.643 346.797 256.465 345.433C257.058 346.382 256.524 347.806 255.457 348.102C254.389 348.399 253.203 347.39 253.262 346.263C252.966 347.212 251.898 347.924 250.949 347.746C249.941 347.568 249.17 346.619 249.229 345.611C249.644 345.908 249.525 346.619 249.17 346.916C248.754 347.212 248.161 347.153 247.746 346.916C247.331 346.679 247.034 346.204 246.856 345.73C246.56 344.899 246.441 344.01 246.382 343.12C246.085 339.324 245.848 335.469 245.552 331.673C245.492 331.139 245.492 330.605 245.729 330.131C246.204 329.241 247.449 329.122 248.517 329.182L252.61 329.359C253.499 329.419 254.448 329.359 255.279 329.656C256.761 330.368 258.007 332.325 258.719 333.749Z" fill="#81D5B1"/>
<path d="M243.891 244.662C243.416 252.669 242.942 260.735 242.408 268.743C242.111 273.191 241.874 277.699 242.526 282.088C243.06 285.765 244.187 289.324 245.314 292.823C249.407 305.516 253.499 318.209 257.651 330.901C253.262 330.605 248.814 330.308 244.424 330.012C240.925 316.429 234.163 292.171 233.57 289.976C228.707 274.733 226.987 258.541 228.529 242.645L243.891 244.662Z" fill="#57C796"/>
<path d="M223.606 166.667C223.606 150.949 206.346 138.197 185.053 138.197C163.76 138.197 146.5 150.949 146.5 166.667C146.5 182.384 163.76 195.136 185.053 195.136C189.087 195.136 193.001 194.662 196.619 193.831L210.557 205.219V188.019C218.565 182.799 223.606 175.148 223.606 166.667Z" fill="#7FD4B0"/>
<path d="M201.364 139.086C201.364 126.334 187.366 115.955 170.047 115.955C152.728 115.955 138.73 126.275 138.73 139.086C138.73 151.839 152.728 162.218 170.047 162.218C173.309 162.218 176.512 161.862 179.478 161.151L190.747 170.403V156.465C197.271 152.135 201.364 145.967 201.364 139.086Z" fill="#FCFCFC"/>
<path d="M186.239 130.783H152.432C151.957 130.783 151.542 130.368 151.542 129.893C151.542 129.419 151.957 129.004 152.432 129.004H186.239C186.714 129.004 187.129 129.419 187.129 129.893C187.129 130.368 186.714 130.783 186.239 130.783ZM186.239 137.189H152.432C151.957 137.189 151.542 136.774 151.542 136.299C151.542 135.825 151.957 135.409 152.432 135.409H186.239C186.714 135.409 187.129 135.825 187.129 136.299C187.129 136.774 186.714 137.189 186.239 137.189ZM186.239 143.654H152.432C151.957 143.654 151.542 143.239 151.542 142.764C151.542 142.29 151.957 141.874 152.432 141.874H186.239C186.714 141.874 187.129 142.29 187.129 142.764C187.129 143.239 186.714 143.654 186.239 143.654ZM186.239 150.059H152.432C151.957 150.059 151.542 149.644 151.542 149.17C151.542 148.695 151.957 148.28 152.432 148.28H186.239C186.714 148.28 187.129 148.695 187.129 149.17C187.129 149.644 186.714 150.059 186.239 150.059Z" fill="#7FD4B0"/>
</g>
<defs>
<clipPath id="clip0_332_759">
<rect width="500" height="500" fill="white"/>
</clipPath>
</defs>
</svg>
