<svg width="40" height="40" viewBox="0 0 40 40" fill="none" xmlns="http://www.w3.org/2000/svg">
<path d="M21.6314 5.2045L25.3481 12.6562C25.6161 13.1983 26.139 13.5755 26.7456 13.6644L35.0709 14.8771C35.5604 14.9458 36.0018 15.2033 36.2976 15.5927C36.5933 15.9821 36.719 16.4712 36.6468 16.9519C36.5892 17.3504 36.4013 17.7196 36.1116 18.0039L30.0757 23.8484C29.6336 24.2616 29.4325 24.8655 29.5405 25.4556L31.0272 33.6818C31.1914 34.6659 30.5348 35.6015 29.5405 35.8004C29.1336 35.8643 28.7166 35.7977 28.3512 35.6104L20.9178 31.7385C20.3674 31.4602 19.7141 31.4602 19.1636 31.7385L11.7302 35.6104C10.8146 36.0974 9.67071 35.764 9.17316 34.8653C8.98464 34.5055 8.91698 34.0963 8.9799 33.6964L10.4666 25.4703C10.5745 24.8801 10.3734 24.2762 9.93137 23.863L3.89549 18.0185C3.54139 17.6753 3.34204 17.2069 3.34204 16.7181C3.34204 16.2294 3.54139 15.761 3.89549 15.4177C4.18075 15.1275 4.55847 14.9419 4.96589 14.8917L13.2912 13.679C13.8978 13.5902 14.4207 13.2129 14.6887 12.6708L18.2716 5.2045C18.5849 4.56763 19.2467 4.16823 19.9664 4.18172H20.1894C20.8156 4.2598 21.3587 4.64498 21.6314 5.2045Z" fill="#424242"/>
<path d="M20.011 31.5193C19.6854 31.5172 19.3792 31.6244 19.0895 31.7705L11.6796 35.633C10.7909 36.0808 9.66238 35.721 9.17314 34.8653C8.98378 34.511 8.91599 34.1062 8.97988 33.711L10.4665 25.4995C10.5664 24.9055 10.3669 24.3009 9.93135 23.8776L3.8806 18.0331C3.15096 17.3145 3.15096 16.151 3.8806 15.4324C4.166 15.1504 4.53603 14.966 4.93614 14.9064L13.2912 13.679C13.9351 13.5856 14.3952 13.2296 14.6887 12.6708L18.3183 5.11893C18.5949 4.50459 19.5249 4.08005 20.0258 4.18172C20.011 4.6785 20.011 31.1832 20.011 31.5193Z" fill="#424242"/>
</svg>
