<svg width="22" height="22" viewBox="0 0 22 22" fill="none" xmlns="http://www.w3.org/2000/svg">
<path d="M11.8973 2.86249L13.9415 6.96093C14.0889 7.25908 14.3765 7.46656 14.7101 7.51543L19.289 8.18243C19.5582 8.22019 19.801 8.36182 19.9637 8.57598C20.1263 8.79014 20.1955 9.05918 20.1558 9.32357C20.1241 9.54271 20.0208 9.74578 19.8614 9.90217L16.5417 13.1166C16.2985 13.3439 16.1879 13.6761 16.2473 14.0006L17.065 18.525C17.1553 19.0662 16.7942 19.5808 16.2473 19.6902C16.0235 19.7254 15.7941 19.6887 15.5932 19.5858L11.5048 17.4562C11.2021 17.3031 10.8427 17.3031 10.54 17.4562L6.45164 19.5858C5.94805 19.8536 5.3189 19.6702 5.04525 19.1759C4.94156 18.978 4.90435 18.753 4.93896 18.533L5.75662 14.0087C5.81601 13.6841 5.7054 13.3519 5.46226 13.1247L2.14253 9.91021C1.94778 9.72144 1.83813 9.46382 1.83813 9.19499C1.83813 8.92616 1.94778 8.66854 2.14253 8.47977C2.29943 8.32013 2.50717 8.21804 2.73125 8.19047L7.31019 7.52347C7.64379 7.4746 7.93138 7.26712 8.0788 6.96897L10.0494 2.86249C10.2217 2.51221 10.5857 2.29254 10.9815 2.29996H11.1042C11.4486 2.3429 11.7473 2.55475 11.8973 2.86249Z" fill="#FFB800"/>
</svg>
