<svg width="40" height="40" viewBox="0 0 40 40" fill="none" xmlns="http://www.w3.org/2000/svg">
<path d="M33.75 22.5H28.365C27.5786 22.5102 26.8149 22.7652 26.1802 23.2296C25.5455 23.6941 25.0714 24.3448 24.8237 25.0912C24.5326 26.0186 23.9904 26.8472 23.2573 27.4852C22.5241 28.1233 21.6286 28.5459 20.67 28.7063C19.4982 28.8681 18.3071 28.6079 17.3096 27.9722C16.3121 27.3365 15.5732 26.3667 15.225 25.2362C14.9984 24.4559 14.5273 23.7689 13.881 23.2764C13.2348 22.7838 12.4475 22.5117 11.635 22.5H6.25C5.58696 22.5 4.95107 22.7634 4.48223 23.2322C4.01339 23.7011 3.75 24.337 3.75 25V35C3.75 35.663 4.01339 36.2989 4.48223 36.7678C4.95107 37.2366 5.58696 37.5 6.25 37.5H33.75C34.413 37.5 35.0489 37.2366 35.5178 36.7678C35.9866 36.2989 36.25 35.663 36.25 35V25C36.25 24.337 35.9866 23.7011 35.5178 23.2322C35.0489 22.7634 34.413 22.5 33.75 22.5ZM19.1163 20.8838C19.3507 21.1181 19.6685 21.2497 20 21.2497C20.3315 21.2497 20.6493 21.1181 20.8838 20.8838L25.8838 15.8837C26.1114 15.648 26.2374 15.3322 26.2346 15.0045C26.2317 14.6768 26.1003 14.3632 25.8685 14.1315C25.6368 13.8997 25.3232 13.7683 24.9955 13.7654C24.6678 13.7626 24.352 13.8886 24.1162 14.1163L21.25 16.9825V3.75C21.25 3.41848 21.1183 3.10054 20.8839 2.86612C20.6495 2.6317 20.3315 2.5 20 2.5C19.6685 2.5 19.3505 2.6317 19.1161 2.86612C18.8817 3.10054 18.75 3.41848 18.75 3.75V16.9825L15.8837 14.1163C15.648 13.8886 15.3322 13.7626 15.0045 13.7654C14.6768 13.7683 14.3632 13.8997 14.1315 14.1315C13.8997 14.3632 13.7683 14.6768 13.7654 15.0045C13.7626 15.3322 13.8886 15.648 14.1163 15.8837L19.1163 20.8838Z" fill="#424242"/>
</svg>
