<svg width="22" height="22" viewBox="0 0 22 22" fill="none" xmlns="http://www.w3.org/2000/svg">
<path d="M11.8973 2.86247L13.9415 6.96092C14.0889 7.25907 14.3765 7.46655 14.7101 7.51542L19.289 8.18242C19.5582 8.22017 19.801 8.3618 19.9637 8.57597C20.1263 8.79013 20.1955 9.05917 20.1558 9.32355C20.1241 9.54269 20.0208 9.74576 19.8614 9.90216L16.5417 13.1166C16.2985 13.3439 16.1879 13.676 16.2473 14.0006L17.065 18.525C17.1553 19.0662 16.7942 19.5808 16.2473 19.6902C16.0235 19.7254 15.7941 19.6887 15.5932 19.5857L11.5048 17.4562C11.2021 17.3031 10.8427 17.3031 10.54 17.4562L6.45164 19.5857C5.94805 19.8536 5.3189 19.6702 5.04525 19.1759C4.94156 18.978 4.90435 18.753 4.93896 18.533L5.75662 14.0086C5.81601 13.6841 5.7054 13.3519 5.46226 13.1247L2.14253 9.91019C1.94778 9.72142 1.83813 9.46381 1.83813 9.19497C1.83813 8.92614 1.94778 8.66853 2.14253 8.47976C2.29943 8.32011 2.50717 8.21803 2.73125 8.19045L7.31019 7.52345C7.64379 7.47458 7.93138 7.26711 8.0788 6.96896L10.0494 2.86247C10.2217 2.51219 10.5857 2.29252 10.9815 2.29994H11.1042C11.4486 2.34288 11.7473 2.55474 11.8973 2.86247Z" fill="#CCCCCC"/>
</svg>
