<svg width="30" height="30" viewBox="0 0 30 30" fill="none" xmlns="http://www.w3.org/2000/svg">
<g clip-path="url(#clip0_138_251)">
<path d="M8.7501 9.45001C8.7501 8.27501 7.3251 7.67501 6.4876 8.51251L0.887598 14.1125C0.400098 14.6 0.400098 15.3875 0.887598 15.875L6.4876 21.475C7.3251 22.325 8.7501 21.725 8.7501 20.55C8.7501 20.2 8.6126 19.8625 8.3626 19.6125L3.7501 15L8.3626 10.3875C8.6126 10.1375 8.7501 9.80001 8.7501 9.45001ZM16.2501 11.25V9.26251C16.2501 8.15001 14.9001 7.58751 14.1126 8.37501L8.3751 14.1125C7.8876 14.6 7.8876 15.3875 8.3751 15.875L14.1126 21.6125C14.9001 22.4 16.2501 21.8375 16.2501 20.725V18.625C22.5001 18.625 26.8751 20.625 30.0001 25C28.7501 18.75 25.0001 12.5 16.2501 11.25Z" fill="#424242"/>
</g>
<defs>
<clipPath id="clip0_138_251">
<rect width="30" height="30" fill="white"/>
</clipPath>
</defs>
</svg>
