<svg width="40" height="40" viewBox="0 0 40 40" fill="none" xmlns="http://www.w3.org/2000/svg">
<path d="M27.15 14.5167C27.305 14.6729 27.4893 14.7969 27.6924 14.8815C27.8955 14.9661 28.1134 15.0097 28.3334 15.0097C28.5534 15.0097 28.7712 14.9661 28.9743 14.8815C29.1774 14.7969 29.3618 14.6729 29.5167 14.5167L36.1834 7.85C36.4972 7.53616 36.6735 7.1105 36.6735 6.66667C36.6735 6.22283 36.4972 5.79717 36.1834 5.48333C35.8695 5.16949 35.4439 4.99318 35 4.99318C34.5562 4.99318 34.1306 5.16949 33.8167 5.48333L28.3334 10.9833L26.1834 8.81667C26.028 8.66127 25.8435 8.538 25.6405 8.4539C25.4374 8.3698 25.2198 8.32651 25 8.32651C24.5562 8.32651 24.1305 8.50283 23.8167 8.81667C23.6613 8.97206 23.538 9.15655 23.4539 9.35958C23.3698 9.56262 23.3266 9.78023 23.3266 10C23.3266 10.4438 23.5029 10.8695 23.8167 11.1833L27.15 14.5167ZM35 13.3333C34.558 13.3333 34.1341 13.5089 33.8215 13.8215C33.509 14.134 33.3334 14.558 33.3334 15V30C33.3334 30.442 33.1578 30.8659 32.8452 31.1785C32.5327 31.4911 32.1087 31.6667 31.6667 31.6667H8.33337C7.89135 31.6667 7.46742 31.4911 7.15486 31.1785C6.8423 30.8659 6.66671 30.442 6.66671 30V14.0167L16.4667 23.8333C17.4021 24.7611 18.6659 25.2822 19.9834 25.2833C21.334 25.2764 22.6274 24.7375 23.5834 23.7833L26.45 20.9167C26.7639 20.6028 26.9402 20.1772 26.9402 19.7333C26.9402 19.2895 26.7639 18.8638 26.45 18.55C26.1362 18.2362 25.7105 18.0598 25.2667 18.0598C24.8229 18.0598 24.3972 18.2362 24.0834 18.55L21.1667 21.4667C20.8552 21.772 20.4363 21.9431 20 21.9431C19.5638 21.9431 19.1449 21.772 18.8334 21.4667L9.01671 11.6667H18.3334C18.7754 11.6667 19.1993 11.4911 19.5119 11.1785C19.8244 10.8659 20 10.442 20 10C20 9.55797 19.8244 9.13405 19.5119 8.82149C19.1993 8.50893 18.7754 8.33333 18.3334 8.33333H8.33337C7.00729 8.33333 5.73552 8.86012 4.79784 9.7978C3.86016 10.7355 3.33337 12.0072 3.33337 13.3333V30C3.33337 31.3261 3.86016 32.5978 4.79784 33.5355C5.73552 34.4732 7.00729 35 8.33337 35H31.6667C32.9928 35 34.2646 34.4732 35.2022 33.5355C36.1399 32.5978 36.6667 31.3261 36.6667 30V15C36.6667 14.558 36.4911 14.134 36.1786 13.8215C35.866 13.5089 35.4421 13.3333 35 13.3333Z" fill="#424242"/>
</svg>
