<svg width="40" height="40" viewBox="0 0 40 40" fill="none" xmlns="http://www.w3.org/2000/svg">
<g clip-path="url(#clip0_130_14)">
<path d="M32.3833 21.6333C32.45 21.1 32.5 20.5667 32.5 20C32.5 19.4333 32.45 18.9 32.3833 18.3667L35.9 15.6167C36.2166 15.3667 36.3 14.9167 36.1 14.55L32.7666 8.78334C32.5666 8.41668 32.1166 8.28334 31.75 8.41668L27.6 10.0833C26.7333 9.41668 25.8 8.86668 24.7833 8.45001L24.15 4.03334C24.1 3.63334 23.75 3.33334 23.3333 3.33334H16.6666C16.25 3.33334 15.9 3.63334 15.85 4.03334L15.2166 8.45001C14.2 8.86668 13.2666 9.43334 12.4 10.0833L8.24998 8.41668C7.86664 8.26668 7.43331 8.41668 7.23331 8.78334L3.89998 14.55C3.68331 14.9167 3.78331 15.3667 4.09998 15.6167L7.61664 18.3667C7.54998 18.9 7.49998 19.45 7.49998 20C7.49998 20.55 7.54998 21.1 7.61664 21.6333L4.09998 24.3833C3.78331 24.6333 3.69998 25.0833 3.89998 25.45L7.23331 31.2167C7.43331 31.5833 7.88331 31.7167 8.24998 31.5833L12.4 29.9167C13.2666 30.5833 14.2 31.1333 15.2166 31.55L15.85 35.9667C15.9 36.3667 16.25 36.6667 16.6666 36.6667H23.3333C23.75 36.6667 24.1 36.3667 24.15 35.9667L24.7833 31.55C25.8 31.1333 26.7333 30.5667 27.6 29.9167L31.75 31.5833C32.1333 31.7333 32.5666 31.5833 32.7666 31.2167L36.1 25.45C36.3 25.0833 36.2166 24.6333 35.9 24.3833L32.3833 21.6333ZM20 25.8333C16.7833 25.8333 14.1666 23.2167 14.1666 20C14.1666 16.7833 16.7833 14.1667 20 14.1667C23.2166 14.1667 25.8333 16.7833 25.8333 20C25.8333 23.2167 23.2166 25.8333 20 25.8333Z" fill="#424242"/>
</g>
<defs>
<clipPath id="clip0_130_14">
<rect width="40" height="40" fill="white"/>
</clipPath>
</defs>
</svg>
