<svg width="40" height="40" viewBox="0 0 40 40" fill="none" xmlns="http://www.w3.org/2000/svg">
<path d="M20 3.33334C16.7037 3.33334 13.4814 4.31083 10.7405 6.14218C7.99972 7.97354 5.86352 10.5765 4.60206 13.622C3.3406 16.6674 3.01054 20.0185 3.65363 23.2515C4.29671 26.4845 5.88406 29.4542 8.21494 31.7851C10.5458 34.116 13.5155 35.7033 16.7485 36.3464C19.9816 36.9895 23.3327 36.6595 26.3781 35.398C29.4235 34.1365 32.0265 32.0003 33.8579 29.2595C35.6892 26.5187 36.6667 23.2964 36.6667 20C36.6667 17.8113 36.2356 15.644 35.398 13.622C34.5605 11.5999 33.3328 9.76254 31.7852 8.2149C30.2375 6.66725 28.4002 5.4396 26.3781 4.60202C24.356 3.76444 22.1887 3.33334 20 3.33334ZM20 33.3333C17.363 33.3333 14.7851 32.5514 12.5924 31.0863C10.3998 29.6212 8.69082 27.5388 7.68165 25.1025C6.67249 22.6661 6.40844 19.9852 6.92291 17.3988C7.43738 14.8124 8.70726 12.4366 10.572 10.5719C12.4367 8.70722 14.8124 7.43734 17.3988 6.92287C19.9853 6.4084 22.6661 6.67245 25.1025 7.68162C27.5388 8.69079 29.6212 10.3998 31.0863 12.5924C32.5514 14.7851 33.3334 17.3629 33.3334 20C33.3334 23.5362 31.9286 26.9276 29.4281 29.4281C26.9277 31.9286 23.5363 33.3333 20 33.3333Z" fill="#424242"/>
<path d="M21.6667 16.6667H18.3334V30H21.6667V16.6667Z" fill="#424242"/>
<path d="M21.6667 10H18.3334V13.3333H21.6667V10Z" fill="#424242"/>
</svg>
