<svg width="30" height="30" viewBox="0 0 30 30" fill="none" xmlns="http://www.w3.org/2000/svg">
<g clip-path="url(#clip0_102_60)">
<path d="M27.075 12.9625C27.117 12.8887 27.1465 12.8084 27.1625 12.725L28.1 7.725C28.1596 7.39348 28.0852 7.05183 27.893 6.77521C27.7007 6.4986 27.4065 6.30967 27.075 6.25C26.7434 6.19033 26.4018 6.26479 26.1252 6.45702C25.8486 6.64924 25.6596 6.94348 25.6 7.275L25.1375 9.775C24.097 7.87489 22.542 6.30651 20.651 5.24973C18.7599 4.19295 16.6092 3.69055 14.4457 3.80017C12.2821 3.90978 10.1932 4.62696 8.41865 5.86946C6.64405 7.11196 5.25558 8.82946 4.41247 10.825C4.28879 11.1317 4.2917 11.4749 4.42056 11.7795C4.54942 12.0841 4.79372 12.3252 5.09997 12.45C5.25254 12.5132 5.41611 12.5455 5.58124 12.5451C5.74637 12.5447 5.90979 12.5115 6.06204 12.4476C6.2143 12.3837 6.35238 12.2902 6.46831 12.1726C6.58424 12.055 6.67572 11.9156 6.73747 11.7625C7.41064 10.1085 8.56842 8.69684 10.0587 7.71299C11.549 6.72915 13.302 6.21915 15.0875 6.25C16.6666 6.24263 18.2196 6.65262 19.5893 7.43845C20.959 8.22428 22.0968 9.35806 22.8875 10.725L20.825 10.3875C20.6608 10.3612 20.4931 10.3676 20.3314 10.4061C20.1697 10.4447 20.0172 10.5147 19.8825 10.6122C19.7479 10.7097 19.6337 10.8328 19.5467 10.9744C19.4596 11.116 19.4012 11.2733 19.375 11.4375C19.3487 11.6017 19.355 11.7694 19.3936 11.9311C19.4321 12.0928 19.5022 12.2453 19.5997 12.38C19.6972 12.5146 19.8202 12.6287 19.9618 12.7158C20.1034 12.8029 20.2608 12.8612 20.425 12.8875L25.7375 13.775H25.9375C26.0826 13.7767 26.2267 13.7513 26.3625 13.7C26.4083 13.6826 26.4506 13.6572 26.4875 13.625C26.5771 13.5917 26.6613 13.5453 26.7375 13.4875L26.8375 13.3625C26.9023 13.3018 26.9609 13.2348 27.0125 13.1625C27.0429 13.0992 27.0639 13.0318 27.075 12.9625ZM24.85 17.5875C24.6966 17.5247 24.5323 17.493 24.3666 17.4942C24.2009 17.4955 24.0371 17.5297 23.8847 17.5948C23.7323 17.6599 23.5944 17.7547 23.479 17.8736C23.3636 17.9926 23.273 18.1332 23.2125 18.2875C22.5346 19.9241 21.3812 21.3196 19.9014 22.2935C18.4217 23.2674 16.6837 23.7747 14.9125 23.75C13.3334 23.7574 11.7803 23.3474 10.4106 22.5615C9.04089 21.7757 7.90312 20.6419 7.11247 19.275L9.17497 19.6125H9.37497C9.70649 19.639 10.035 19.5328 10.2881 19.3171C10.5413 19.1014 10.6984 18.794 10.725 18.4625C10.7515 18.131 10.6452 17.8025 10.4296 17.5493C10.2139 17.2962 9.90649 17.139 9.57497 17.1125L4.26247 16.25C4.12612 16.2249 3.98632 16.2249 3.84997 16.25H3.74997C3.6085 16.2876 3.47361 16.3466 3.34997 16.425C3.26569 16.4901 3.19008 16.5657 3.12497 16.65L3.01247 16.775C2.97383 16.8503 2.94445 16.9301 2.92497 17.0125C2.88116 17.0764 2.85135 17.1488 2.83747 17.225L1.89997 22.225C1.85982 22.3911 1.85417 22.5637 1.88336 22.7321C1.91255 22.9005 1.97596 23.0612 2.06968 23.2041C2.16341 23.347 2.28544 23.4692 2.42825 23.5631C2.57106 23.657 2.7316 23.7206 2.89997 23.75H3.12497C3.42095 23.7548 3.70905 23.6545 3.93795 23.4668C4.16686 23.279 4.32172 23.0162 4.37497 22.725L4.83747 20.225C5.87686 22.1256 7.43085 23.6947 9.32123 24.7525C11.2116 25.8103 13.3618 26.3139 15.5253 26.2056C17.6888 26.0973 19.778 25.3815 21.5533 24.1402C23.3286 22.8989 24.7181 21.1824 25.5625 19.1875C25.677 18.8806 25.6665 18.5411 25.5333 18.2418C25.4 17.9426 25.1547 17.7077 24.85 17.5875Z" fill="#FCFCFC"/>
</g>
<defs>
<clipPath id="clip0_102_60">
<rect width="30" height="30" fill="white"/>
</clipPath>
</defs>
</svg>
