<svg width="40" height="40" viewBox="0 0 40 40" fill="none" xmlns="http://www.w3.org/2000/svg">
<path d="M20.5 8.16667C21.1667 7.83333 21.5 7 21.3333 6.33333C21.1667 5.66667 20.3333 5 19.5 5C11.3333 5.16667 5 11.8333 5 20C5 28.3333 11.6667 35 20 35C26.3333 35 31.8333 31 34 25.1667C34.3333 24.5 34 23.6667 33.3333 23.1667C32.6667 22.6667 31.8333 22.8333 31.3333 23.3333C29.6667 24.8333 27.5 25.6667 25.1667 25.6667C20 25.6667 15.6667 21.5 15.6667 16.1667C15.6667 13 17.5 9.83333 20.5 8.16667ZM25.1667 29C26 29 26.8333 29 27.5 28.8333C25.5 30.6667 22.8333 31.6667 20 31.6667C13.5 31.6667 8.33333 26.5 8.33333 20C8.33333 15.8333 10.6667 12 14.1667 10C13 11.8333 12.5 14 12.5 16.3333C12.3333 23.3333 18.1667 29 25.1667 29Z" fill="#424242"/>
</svg>
